<?xml version="1.0" standalone="no"?>
<!DOCTYPE svg PUBLIC "-//W3C//DTD SVG 20010904//EN"
 "http://www.w3.org/TR/2001/REC-SVG-20010904/DTD/svg10.dtd">
<svg version="1.0" xmlns="http://www.w3.org/2000/svg"
 width="512.000000pt" height="512.000000pt" viewBox="0 0 512.000000 512.000000"
 preserveAspectRatio="xMidYMid meet">

<g transform="translate(0.000000,512.000000) scale(0.100000,-0.100000)"
fill="#000000" stroke="none">
<path d="M0 2560 l0 -2560 2560 0 2560 0 0 2560 0 2560 -2560 0 -2560 0 0
-2560z m3740 1900 c6 9 12 6 23 -11 59 -94 70 -117 74 -158 3 -25 10 -52 15
-59 8 -9 6 -17 -8 -28 -10 -9 -13 -12 -5 -8 11 5 13 3 8 -9 -3 -10 -2 -17 3
-17 6 0 10 -8 10 -18 0 -11 9 -27 19 -36 11 -10 19 -25 18 -34 -1 -16 48 -102
58 -102 3 0 -2 16 -10 36 -20 49 -19 50 10 16 32 -38 57 -96 49 -116 -4 -9 5
-29 21 -47 62 -74 114 -229 87 -262 -11 -14 -23 -70 -22 -106 0 -13 9 -40 20
-60 22 -38 44 -228 27 -234 -28 -9 -37 -209 -11 -263 19 -40 31 -43 44 -9 5
14 12 25 14 25 5 0 1 -65 -5 -85 -2 -5 3 -34 10 -62 14 -57 2 -165 -25 -232
-8 -18 -14 -44 -14 -56 0 -30 -75 -139 -179 -261 -46 -55 -94 -114 -105 -131
-12 -18 -27 -33 -33 -33 -7 0 -13 -5 -13 -11 0 -5 -13 -15 -30 -20 -26 -10
-30 -16 -30 -50 0 -21 -5 -39 -10 -39 -18 0 19 -59 48 -77 14 -10 39 -32 54
-49 21 -23 39 -33 74 -38 26 -3 52 -10 58 -14 6 -5 30 -14 52 -20 40 -12 159
-91 149 -100 -2 -2 -26 8 -52 22 -26 15 -39 20 -28 11 11 -9 45 -29 76 -45 30
-16 71 -46 91 -68 32 -35 78 -133 78 -165 0 -7 4 -17 9 -23 10 -11 51 -132 51
-151 0 -17 -17 -17 -23 0 -2 6 -2 3 0 -8 17 -75 17 -72 0 -51 -13 18 -14 15
-10 -35 2 -30 8 -76 14 -102 12 -61 12 -197 0 -197 -12 0 -21 25 -21 57 0 39
-9 22 -13 -24 -6 -62 -14 -67 -50 -33 -29 27 -32 28 -48 12 -10 -10 -13 -21
-8 -27 14 -14 10 -38 -9 -62 -15 -21 -19 -22 -43 -9 -15 7 -39 11 -54 9 -18
-4 -36 2 -57 17 -17 13 -27 16 -23 9 7 -12 6 -12 -7 -1 -13 10 -17 10 -20 0
-4 -10 -10 -9 -29 3 -23 16 -25 15 -62 -18 -21 -18 -42 -31 -48 -27 -5 3 -17
0 -25 -7 -21 -18 -28 -4 -15 32 13 37 8 47 -13 30 -11 -9 -17 -8 -29 4 -9 8
-20 15 -26 15 -6 0 -11 14 -11 30 0 30 0 30 -25 14 -13 -8 -29 -13 -34 -10 -5
4 -21 -10 -34 -29 l-24 -36 -22 46 c-18 38 -25 45 -41 40 -21 -7 -23 -2 -20
52 1 18 -3 33 -9 33 -13 0 -8 33 16 98 15 44 30 54 39 25 17 -55 35 -83 54
-83 28 0 25 17 -11 52 -33 33 -44 65 -30 82 9 11 41 112 41 128 0 16 -19 8
-22 -9 -7 -33 -30 88 -26 131 3 24 19 71 36 105 18 33 29 61 25 61 -16 0 46
54 87 76 38 20 40 23 15 18 l-30 -6 37 26 c21 15 51 29 68 32 16 4 30 10 30
14 0 17 -41 16 -80 -1 -24 -11 -60 -22 -81 -25 -21 -4 -37 -9 -35 -13 3 -4 -4
-7 -15 -7 -20 0 -20 0 -25 61 -1 22 -5 65 -9 96 -6 44 -2 78 19 160 14 58 26
115 26 128 0 12 5 31 10 42 18 33 1 21 -30 -23 -16 -22 -30 -37 -30 -31 0 12
55 99 69 107 6 4 11 16 11 27 0 12 4 17 11 14 6 -4 9 0 7 11 -2 11 2 18 9 17
6 -1 26 18 45 43 45 61 71 92 62 74 -4 -9 3 -6 17 6 13 12 35 30 48 40 52 41
81 72 81 87 0 8 7 17 15 21 8 3 15 12 15 20 0 8 10 22 22 30 17 12 18 16 7 16
-11 0 -21 17 -30 53 -11 41 -18 52 -34 52 -23 0 -37 50 -28 103 3 20 1 32 -6
32 -6 0 -12 -10 -12 -22 -1 -17 -3 -18 -6 -6 -2 9 0 25 5 35 12 22 5 43 -14
43 -13 0 -19 -29 -15 -72 4 -38 -16 -15 -28 32 -7 28 -16 50 -19 50 -6 0 -7
21 -3 88 1 6 7 12 15 12 21 0 30 19 16 34 -8 11 -8 15 2 19 10 4 10 8 -2 16
-11 8 -12 11 -2 11 7 0 10 5 7 10 -12 19 -13 85 -2 92 6 4 8 10 4 15 -5 4 -16
-3 -26 -16 l-18 -23 -12 30 c-7 17 -13 71 -13 121 -1 85 -8 111 -21 77 -3 -8
-20 -22 -36 -31 l-31 -16 0 46 c0 26 9 63 20 85 11 21 17 45 14 53 -2 7 0 25
5 40 7 18 7 27 -2 31 -7 2 -4 5 5 5 12 1 15 6 11 17 -5 14 0 16 30 12 21 -2
37 0 37 4 0 4 -3 8 -7 8 -5 0 -7 31 -6 69 1 69 0 71 -39 112 -48 50 -78 97
-78 122 0 12 -5 16 -12 11 -10 -5 -10 -4 -1 6 10 10 9 19 -5 42 -9 15 -20 28
-24 28 -4 0 -8 6 -8 13 0 7 -8 13 -18 14 -15 1 -18 -4 -14 -23 6 -31 -8 -31
-42 1 -55 51 -81 165 -37 165 11 0 12 3 4 8 -6 4 -11 28 -11 55 1 30 -5 53
-15 65 -20 22 -21 41 -3 65 13 17 32 25 22 9 -2 -4 4 -8 14 -8 10 0 16 4 14 8
-3 5 3 11 13 14 10 3 25 9 33 14 9 4 27 2 44 -7 22 -12 30 -12 36 -3z m-850
-45 c16 -8 37 -27 48 -42 19 -27 47 -131 38 -140 -7 -7 22 -82 64 -166 22 -43
35 -75 28 -71 -7 5 -9 2 -6 -7 5 -12 -13 -17 -86 -27 -50 -7 -149 -32 -221
-56 -71 -24 -135 -41 -141 -39 -12 4 -26 49 -29 93 -1 16 17 49 52 97 33 43
52 77 47 84 -4 8 -3 9 4 5 7 -4 35 41 78 126 63 127 81 158 91 158 2 0 17 -7
33 -15z m-227 -140 c-3 -9 -8 -14 -10 -11 -3 3 -2 9 2 15 9 16 15 13 8 -4z
m-41 -88 c-15 -30 -42 -46 -42 -25 0 4 5 8 10 8 6 0 10 7 10 16 0 8 4 13 9 10
5 -3 11 1 15 9 3 8 8 15 10 15 3 0 -2 -15 -12 -33z m-3 -134 c-22 -28 -52 -58
-74 -73 -11 -8 2 9 30 38 49 51 70 68 44 35z m499 -159 c33 -9 27 -31 -14 -44
-42 -14 -127 -6 -157 15 -18 12 -16 14 24 23 52 12 115 14 147 6z m-494 -176
c3 -13 7 -37 10 -55 3 -17 15 -52 27 -77 18 -39 26 -46 48 -45 14 1 55 -13 91
-31 58 -29 71 -31 120 -26 67 8 192 69 227 111 14 16 34 49 44 72 19 45 32 50
74 31 45 -20 32 -75 -42 -171 -26 -34 -50 -64 -53 -67 -8 -7 -34 -64 -32 -72
1 -3 -14 -18 -33 -33 -63 -48 -84 -127 -47 -176 28 -37 45 -112 38 -164 -12
-79 -29 -108 -72 -120 -36 -10 -41 -9 -72 19 -18 16 -30 36 -28 43 8 21 7 21
-236 85 -40 11 -47 16 -51 41 -5 37 31 82 72 90 17 4 38 18 47 32 16 25 16 28
-7 77 -25 52 -60 85 -79 73 -9 -5 -9 -10 -1 -18 6 -6 11 -21 11 -34 0 -31 -71
-51 -108 -31 -35 18 -38 34 -13 83 18 35 20 49 11 65 -6 11 -8 24 -5 29 3 5
-1 29 -9 53 -21 66 -27 167 -11 205 11 27 19 33 44 33 24 0 32 -5 35 -22z
m271 -88 c22 -24 18 -31 -12 -19 -13 5 -23 15 -23 24 0 21 13 19 35 -5z m885
-73 c0 -5 -4 -5 -10 -2 -5 3 -10 14 -10 23 0 15 2 15 10 2 5 -8 10 -19 10 -23z
m-1565 -25 c-3 -3 -11 0 -18 7 -9 10 -8 11 6 5 10 -3 15 -9 12 -12z m1495
-197 c0 -37 -4 -65 -10 -65 -11 0 -14 113 -3 123 12 13 13 7 13 -58z m610
-181 c0 -2 -9 0 -20 6 -11 6 -20 13 -20 16 0 2 9 0 20 -6 11 -6 20 -13 20 -16z
m-1706 -70 c4 -15 4 -29 1 -32 -8 -9 -33 31 -28 45 8 21 20 15 27 -13z m984
-59 c-6 -14 -13 -23 -15 -21 -5 5 15 46 22 46 3 0 -1 -11 -7 -25z m-783 -275
c17 -6 32 -11 35 -10 15 5 7 -22 -15 -48 -23 -28 -28 -29 -66 -21 -22 5 -51
20 -65 32 -56 52 17 83 111 47z m-89 -1410 c12 0 12 -4 4 -20 -11 -21 -40 -28
-40 -9 0 5 -4 7 -10 4 -16 -10 -12 7 7 27 10 11 19 15 21 9 2 -6 10 -11 18
-11z m1713 -135 c0 -5 -4 -3 -9 5 -5 8 -9 22 -9 30 0 16 17 -16 18 -35z m20
-268 c-1 -34 -5 -73 -9 -87 -6 -16 -8 7 -7 67 1 50 5 89 9 87 5 -3 8 -33 7
-67z m-43 -182 c5 -42 3 -57 -4 -50 -6 6 -13 37 -17 70 -5 43 -4 57 3 50 6 -6
14 -37 18 -70z m-1812 -87 c-19 -105 -17 -174 7 -253 27 -92 29 -121 7 -117
-9 1 -19 -2 -23 -8 -3 -5 -17 -10 -29 -10 -18 0 -25 -7 -29 -30 -5 -21 -12
-30 -27 -30 -28 0 -31 41 -4 71 12 14 12 18 1 27 -8 7 -17 9 -21 5 -4 -4 -4 0
-1 9 4 9 2 19 -4 23 -8 4 -6 16 4 36 19 35 7 38 -25 4 -12 -13 -27 -22 -32
-19 -5 3 -18 -2 -29 -12 -18 -16 -19 -16 -19 3 0 26 -10 35 -25 23 -21 -17
-45 0 -71 52 -24 46 -24 51 -9 80 8 17 13 40 9 50 -4 13 -1 16 10 12 9 -3 16
-2 16 4 0 18 68 62 85 55 14 -5 16 -14 11 -44 -5 -33 -4 -38 11 -32 10 4 14 2
10 -4 -9 -15 25 -11 42 5 7 7 14 24 14 38 0 13 3 24 8 24 5 0 9 9 9 21 0 14
13 26 44 40 24 10 46 26 50 34 3 8 9 15 14 15 5 0 3 -33 -4 -72z m58 -124 c-3
-19 -7 -22 -13 -12 -6 8 -9 -3 -10 -32 -2 -33 -3 -37 -6 -16 -3 17 -2 50 2 75
6 40 8 43 20 28 7 -9 10 -29 7 -43z m82 -43 c-6 -6 -24 19 -24 34 1 6 7 1 15
-9 8 -11 12 -22 9 -25z m-244 -324 c0 -20 -25 1 -28 24 -2 23 -2 23 13 5 8
-11 15 -24 15 -29z m1941 -26 c7 11 9 11 9 -3 0 -20 -2 -21 -22 -13 -10 4 -13
16 -9 38 l6 32 3 -34 c3 -26 6 -31 13 -20z m-171 -81 c0 -5 -4 -10 -10 -10 -5
0 -10 5 -10 10 0 6 5 10 10 10 6 0 10 -4 10 -10z"/>
<path d="M3890 3826 c0 -2 8 -10 18 -17 15 -13 16 -12 3 4 -13 16 -21 21 -21
13z"/>
<path d="M3866 2325 c-44 -42 -66 -70 -63 -80 4 -8 2 -17 -3 -20 -16 -10 -12
-21 8 -22 12 -1 36 27 75 89 32 50 57 92 55 94 -2 2 -35 -26 -72 -61z"/>
<path d="M3995 1760 c3 -5 19 -10 34 -10 15 0 32 -5 39 -12 7 -7 12 -8 12 -2
0 13 -44 34 -71 34 -11 0 -17 -4 -14 -10z"/>
<path d="M3640 973 l0 -58 18 26 c9 14 25 25 34 24 9 -2 19 3 22 11 3 8 1 14
-4 14 -6 0 -10 7 -10 15 0 8 -6 12 -14 9 -8 -3 -12 -12 -9 -20 3 -8 0 -14 -6
-14 -6 0 -11 9 -11 19 0 11 -4 23 -10 26 -6 4 -10 -16 -10 -52z"/>
<path d="M2396 474 c-9 -24 7 -36 38 -28 35 8 31 38 -5 42 -18 2 -29 -3 -33
-14z"/>
</g>
</svg>
